<?xml version="1.0" standalone="no"?>
<!DOCTYPE svg PUBLIC "-//W3C//DTD SVG 20010904//EN"
 "http://www.w3.org/TR/2001/REC-SVG-20010904/DTD/svg10.dtd">
<svg version="1.0" xmlns="http://www.w3.org/2000/svg"
 width="145.000000pt" height="188.000000pt" viewBox="0 0 145.000000 188.000000"
 preserveAspectRatio="xMidYMid meet">
<metadata>
Created by potrace 1.16, written by Peter Selinger 2001-2019
</metadata>
<g transform="translate(0.000000,188.000000) scale(0.100000,-0.100000)"
fill="#000000" stroke="none">
<path d="M75 1843 c-33 -20 -63 -42 -67 -47 -4 -6 -7 -411 -5 -901 l2 -890
654 -3 655 -2 68 40 68 41 0 899 0 900 -657 0 -658 -1 -60 -36z m1325 -868 l0
-865 -32 -20 -33 -20 -5 868 -5 867 -600 5 c-478 4 -596 7 -580 17 15 9 170
12 638 13 l617 0 0 -865z m-1270 -70 l0 -865 -40 0 -40 0 0 865 0 865 40 0 40
0 0 -865z m1150 292 l0 -572 -281 -293 -280 -292 -275 0 -274 0 0 568 0 567
286 298 285 297 270 0 269 0 0 -573z"/>
</g>
</svg>
