<?xml version="1.0" encoding="UTF-8" standalone="no"?>
<!-- Created with Inkscape (http://www.inkscape.org/) -->

<svg
   version="1.1"
   id="svg2"
   width="297.32141"
   height="349.55795"
   viewBox="0 0 297.32141 349.55795"
   sodipodi:docname="pikachu.svg"
   inkscape:version="1.1.2 (0a00cf5339, 2022-02-04)"
   xmlns:inkscape="http://www.inkscape.org/namespaces/inkscape"
   xmlns:sodipodi="http://sodipodi.sourceforge.net/DTD/sodipodi-0.dtd"
   xmlns="http://www.w3.org/2000/svg"
   xmlns:svg="http://www.w3.org/2000/svg">
  <defs
     id="defs6">
    <marker
       style="overflow:visible"
       id="Arrow1Lstart"
       refX="0"
       refY="0"
       orient="auto"
       inkscape:stockid="Arrow1Lstart"
       inkscape:isstock="true">
      <path
         transform="matrix(0.8,0,0,0.8,10,0)"
         style="fill:context-stroke;fill-rule:evenodd;stroke:context-stroke;stroke-width:1pt"
         d="M 0,0 5,-5 -12.5,0 5,5 Z"
         id="path12060" />
    </marker>
  </defs>
  <sodipodi:namedview
     id="namedview4"
     pagecolor="#ffffff"
     bordercolor="#666666"
     borderopacity="1.0"
     inkscape:pageshadow="2"
     inkscape:pageopacity="0.0"
     inkscape:pagecheckerboard="0"
     showgrid="false"
     inkscape:zoom="0.94282739"
     inkscape:cx="116.14003"
     inkscape:cy="219.02206"
     inkscape:window-width="1366"
     inkscape:window-height="699"
     inkscape:window-x="0"
     inkscape:window-y="0"
     inkscape:window-maximized="1"
     inkscape:current-layer="layer3"
     showguides="false"
     fit-margin-top="0"
     fit-margin-left="0"
     fit-margin-right="0"
     fit-margin-bottom="0" />
  <g
     inkscape:groupmode="layer"
     id="layer2"
     inkscape:label="tail"
     style="display:inline"
     transform="translate(-97.116283,-80.042852)">
    <path
       style="fill:none;stroke:#000000;stroke-width:3;stroke-linecap:butt;stroke-linejoin:miter;stroke-miterlimit:4;stroke-dasharray:none;stroke-opacity:1"
       d="m 325.68164,354.14844 15.04102,-3.27539 -6.93164,-24.23438 47.88086,-9.38476 -2.9961,-42.59961 -42.94539,10.35477 c -6.17011,10.08392 -13.68653,18.29577 -23.43657,23.40172 l 13.79688,31.92191 -6.34961,1.38086 z"
       id="path15036"
       sodipodi:nodetypes="cccccccccc" />
  </g>
  <g
     inkscape:groupmode="layer"
     id="layer1"
     inkscape:label="outline"
     style="display:inline"
     transform="translate(-97.116283,-80.042852)">
    <g
       id="path1104"
       style="display:inline;fill:none;fill-opacity:1;stroke:#000000;stroke-width:3;stroke-miterlimit:4;stroke-dasharray:none;stroke-opacity:1"
       transform="translate(-1.1632069,-1.2962109)">
      <path
         id="path12850"
         style="color:#000000;fill:none;fill-opacity:1;stroke:#000000;stroke-width:3;stroke-miterlimit:4;stroke-dasharray:none;stroke-opacity:1"
         d="m 396.59375,95.628906 c -32.79933,18.146704 -78.9101,48.392804 -89.29297,114.560544 -18.6691,-15.77214 -55.84451,-32.03441 -114.20312,-0.90234 -0.73818,-31.60703 -32.1875,-84.63529 -88.86524,-111.095704 8.78961,47.310274 10.97578,91.478504 72.88281,123.599614 -13.99884,21.10676 -34.05705,63.44495 9.29883,95.8789 -25.02952,84.40165 -4.20469,94.45677 13.26172,103.2832 -2.28049,6.15776 -11.76232,14.49616 -3.89258,17.57813 9.0659,-1.97151 12.37902,-3.54993 17.94727,-14.22656 24.75887,3.46333 49.73454,5.52117 76.04883,-1.11524 5.9472,7.7496 12.606,14.43459 22.64258,16.06446 6.78462,-3.97274 0.60768,-11.91799 -6.35352,-16.00196 34.8412,-10.79588 32.21526,-46.41162 18.88672,-69.45703 l 6.2832,-1.36719 -14.50586,-32.27929 c 49.58165,-27.75083 20.15817,-89.73463 7.39258,-95.23828 41.23476,-9.90046 67.22507,-62.35543 72.46875,-129.281254 z"
         transform="translate(-3.27539,-10.44144)" />
      <path
         style="color:#000000;fill:none;fill-opacity:1;stroke:#000000;stroke-width:3;stroke-miterlimit:4;stroke-dasharray:none;stroke-opacity:1"
         d="M 393.88867,84.300781 393.07617,84.75 c -32.6959,18.08948 -78.72289,48.32622 -89.38867,114.125 -18.90392,-15.64977 -55.92762,-31.19743 -113.42578,-0.80469 -0.60021,-15.87523 -8.63772,-36.73472 -23.49219,-56.99804 -15.08594,-20.5791 -37.17883,-40.50604 -65.60156,-53.775395 l -0.88086,-0.410156 0.17773,0.955078 c 4.39106,23.634953 7.13447,46.545933 16.5586,67.607423 9.37416,20.94983 25.4081,40.0324 56.12109,56.08203 -6.97096,10.58861 -15.3238,26.27856 -16.66211,43.4707 -1.34965,17.33794 4.53879,36.1508 26.08985,52.40235 -12.43331,42.03202 -13.51684,65.65346 -9.2168,79.95117 4.23825,14.09226 13.75423,19.00725 22.36914,23.36133 -1.17946,2.87171 -3.8773,6.32176 -5.52149,9.50781 -0.85584,1.65842 -1.42983,3.26217 -1.22265,4.75391 0.20718,1.49173 1.27524,2.76533 3.3457,3.57617 l 0.14063,0.0566 0.14648,-0.0332 c 4.54766,-0.98895 7.72935,-1.89181 10.47852,-3.93554 2.68489,-1.99595 4.91425,-5.10525 7.62304,-10.24414 24.57276,3.42463 49.42046,5.43683 75.59961,-1.09961 5.92422,7.67483 12.64916,14.36719 22.75196,16.00781 l 0.17773,0.0273 0.1543,-0.0898 c 1.78741,-1.04662 2.79273,-2.42161 3.08789,-3.9375 0.29515,-1.51589 -0.10015,-3.12259 -0.91797,-4.68555 -1.50888,-2.88365 -4.51597,-5.61273 -7.75,-7.66406 16.93378,-5.5689 24.95685,-17.15422 26.97656,-30.20508 2.02268,-13.06999 -1.87288,-27.52772 -8.38867,-39.04492 l 6.26562,-1.36328 -14.58593,-32.45703 c 24.60011,-13.9924 29.70034,-36.53594 26.94336,-56.21094 -1.38638,-9.89377 -4.73044,-19.07442 -8.53711,-26.14453 -3.46788,-6.44087 -7.23354,-10.99382 -10.48242,-12.90039 20.3024,-5.26581 36.86874,-20.76972 49.00976,-43.17969 12.35255,-22.80039 20.17081,-52.70774 22.79688,-86.224608 z m -1.16406,1.806641 c -2.69174,33.014598 -10.44081,62.453248 -22.58399,84.867188 -12.26219,22.63361 -28.96257,38.09882 -49.4082,43.00781 l -1.46094,0.35156 1.38086,0.59375 c 2.9422,1.26848 7.20787,6.11118 10.95899,13.07813 3.75112,6.96695 7.06025,16.04963 8.42773,25.80859 2.73497,19.51794 -2.2106,41.67971 -26.82617,55.45703 l -0.40039,0.22266 14.44141,32.13477 -6.34961,1.38086 0.34179,0.59375 c 6.6155,11.43837 10.56942,26.01529 8.56055,38.99609 -2.00887,12.98079 -9.8934,24.38155 -27.16211,29.73242 l -1.08203,0.33594 0.97656,0.57422 c 3.41421,2.00303 6.64562,4.98288 8.14258,7.84375 0.74848,1.43043 1.05957,2.8105 0.82227,4.02929 -0.22878,1.175 -0.98888,2.23872 -2.47852,3.15625 -9.7412,-1.65906 -16.24499,-8.16607 -22.125,-15.82812 l -0.19922,-0.25977 -0.32031,0.0801 c -26.21776,6.61207 -51.11735,4.56422 -75.85742,1.10352 l -0.34766,-0.0488 -0.16406,0.31445 c -2.76999,5.31122 -4.95165,8.29952 -7.51758,10.20703 -2.52729,1.87879 -5.51231,2.75013 -9.91797,3.71485 -1.74792,-0.72009 -2.45284,-1.61593 -2.60547,-2.71485 -0.15707,-1.13094 0.30514,-2.57511 1.1211,-4.15625 1.63191,-3.16227 4.58425,-6.77646 5.77734,-9.99804 l 0.1543,-0.41797 -0.39844,-0.20117 c -8.73637,-4.41483 -18.10235,-9.00119 -22.3125,-23 -4.21015,-13.99881 -3.19777,-37.53596 9.30469,-79.69532 l 0.0996,-0.33398 -0.2793,-0.20899 c -21.56474,-16.13229 -27.29112,-34.6101 -25.95703,-51.74804 1.33409,-17.13794 9.80029,-32.93837 16.77539,-43.45508 l 0.30859,-0.46289 -0.49414,-0.25586 c -30.87246,-16.0185 -46.79166,-34.98481 -56.13476,-55.86523 -9.20915,-20.58106 -12.01231,-43.07509 -16.30274,-66.386723 27.81707,13.189473 49.49873,32.777973 64.33008,53.009763 14.99267,20.45186 22.994,41.54904 23.35938,57.19336 l 0.0195,0.81055 0.71484,-0.38086 c 58.21695,-31.0565 95.09793,-14.82655 113.64648,0.84375 l 0.67774,0.57226 0.13867,-0.87695 c 10.26693,-65.42886 55.49562,-95.54244 88.20508,-113.718748 z"
         id="path12847" />
    </g>
  </g>
  <g
     inkscape:groupmode="layer"
     id="layer3"
     inkscape:label="eyes"
     style="display:inline"
     transform="translate(-97.116283,-80.042852)">
    <path
       style="display:inline;fill:none;stroke:#000000;stroke-width:3;stroke-linecap:butt;stroke-linejoin:miter;stroke-miterlimit:4;stroke-dasharray:none;stroke-opacity:1"
       d="m 289.67108,235.26645 c -18.1906,9.05257 -6.90041,31.16783 10.01457,30.08046 18.8734,-0.01 15.84653,-40.68145 -10.01457,-30.08046 z"
       id="path2330"
       sodipodi:nodetypes="ccc" />
    <path
       style="fill:none;stroke:#000000;stroke-width:3;stroke-linecap:butt;stroke-linejoin:miter;stroke-miterlimit:4;stroke-dasharray:none;stroke-opacity:1"
       d="m 189.49437,254.14608 c -4.79554,-16.58423 14.70011,-32.89347 28.45107,-10.16038 5.55781,27.25192 -27.9092,23.42088 -28.45107,10.16038 z"
       id="path3369"
       sodipodi:nodetypes="ccc" />
  </g>
  <g
     inkscape:groupmode="layer"
     id="layer4"
     inkscape:label="cheeks"
     style="display:inline"
     transform="translate(-97.116283,-80.042852)">
    <path
       style="display:inline;fill:none;stroke:#000000;stroke-width:3;stroke-linecap:butt;stroke-linejoin:miter;stroke-miterlimit:4;stroke-dasharray:none;stroke-opacity:1"
       d="m 166.76685,270.75162 c 16.28298,-23.4361 36.30911,-0.97432 36.11662,13.60576 -2.46772,39.80687 -44.95019,8.93852 -36.11662,-13.60576 z"
       id="path3817"
       sodipodi:nodetypes="ccc" />
    <path
       style="display:inline;fill:none;stroke:#000000;stroke-width:3;stroke-linecap:butt;stroke-linejoin:miter;stroke-miterlimit:4;stroke-dasharray:none;stroke-opacity:1"
       d="m 337.3084,271.63311 c -16.2148,-23.39864 -41.32917,0.45967 -39.64244,13.44959 1.50759,39.08141 45.15128,6.58259 39.64244,-13.44959 z"
       id="path3817-5"
       sodipodi:nodetypes="ccc" />
  </g>
  <g
     inkscape:groupmode="layer"
     id="layer5"
     inkscape:label="mouth"
     style="display:inline"
     transform="translate(-97.116283,-80.042852)">
    <path
       id="path5565-9"
       style="fill:none;stroke:#000000;stroke-width:3;stroke-linecap:butt;stroke-linejoin:miter;stroke-miterlimit:4;stroke-dasharray:none;stroke-opacity:1"
       d="m 250.99414,270.19531 c -9.162,9.68004 -16.38845,8.34296 -22.9043,2.9668 l 9.2793,22.38477 c 3.67582,4.07186 7.70541,6.49178 11.93164,7.98828 h 3.38867 c 4.22623,-1.4965 8.25387,-3.91642 11.92969,-7.98828 l 9.2793,-22.38477 c -6.51585,5.37616 -13.7423,6.71324 -22.9043,-2.9668 z" />
  </g>
  <g
     inkscape:groupmode="layer"
     id="layer6"
     inkscape:label="arms"
     style="display:inline"
     transform="translate(-97.116283,-80.042852)">
    <path
       style="display:inline;fill:none;stroke:#000000;stroke-width:3;stroke-linecap:butt;stroke-linejoin:miter;stroke-miterlimit:4;stroke-dasharray:none;stroke-opacity:1"
       d="m 195.44061,356.81865 c 2.63492,6.69741 22.51159,28.56816 29.85653,16.87683 7.19305,-12.9402 -1.20084,-27.30735 -5.52175,-40.46746"
       id="path6185"
       sodipodi:nodetypes="ccc" />
    <path
       style="display:inline;fill:none;stroke:#000000;stroke-width:3;stroke-linecap:butt;stroke-linejoin:miter;stroke-miterlimit:4;stroke-dasharray:none;stroke-opacity:1"
       d="m 300.98142,357.32047 c -6.5662,12.90027 -10.62043,20.91653 -19.95039,19.43511 -20.07813,-5.52369 -6.81962,-33.80855 -2.96479,-45.178"
       id="path6185-8"
       sodipodi:nodetypes="ccc" />
  </g>
  <g
     inkscape:groupmode="layer"
     id="layer7"
     inkscape:label="reflection"
     style="display:inline"
     transform="translate(-97.116283,-80.042852)">
    <path
       style="fill:#000000;stroke:#000000;stroke-width:3;stroke-linecap:butt;stroke-linejoin:miter;stroke-miterlimit:4;stroke-dasharray:none;stroke-opacity:1"
       d="m 197.50553,241.38304 c 6.16268,-11.43058 18.37345,-1.635 12.48789,8.58168 -5.01046,5.25772 -15.78684,0.68847 -12.48789,-8.58168 z"
       id="path7988"
       sodipodi:nodetypes="ccc" />
    <path
       style="fill:#000000;stroke:#000000;stroke-width:3;stroke-linecap:butt;stroke-linejoin:miter;stroke-miterlimit:4;stroke-dasharray:none;stroke-opacity:1"
       d="m 301.78612,241.98739 c -6.16267,-11.43058 -18.37344,-1.635 -12.48788,8.58168 5.01046,5.25772 15.78683,0.68847 12.48788,-8.58168 z"
       id="path7988-4"
       sodipodi:nodetypes="ccc" />
  </g>
  <g
     inkscape:groupmode="layer"
     id="layer8"
     inkscape:label="ear"
     style="display:inline"
     transform="translate(-97.116283,-80.042852)">
    <path
       style="fill:#000000;stroke:#000000;stroke-width:1px;stroke-linecap:butt;stroke-linejoin:miter;stroke-opacity:1"
       d="m 101.48053,87.115214 c 1.50899,21.280536 3.51334,43.584996 14.53031,65.854466 L 138.9879,112.26159 C 129.52183,102.5372 118.70081,94.286809 101.48053,87.115214 Z"
       id="path9451"
       sodipodi:nodetypes="cccc" />
    <path
       style="fill:#000000;stroke:#000000;stroke-width:1px;stroke-linecap:butt;stroke-linejoin:miter;stroke-opacity:1"
       d="M 392.80228,86.343247 C 391.29329,107.62378 390.07384,129.96452 379.05686,152.234 L 354.3295,111.47593 c 9.46607,-9.72439 21.25249,-17.961088 38.47278,-25.132683 z"
       id="path9451-8"
       sodipodi:nodetypes="cccc" />
  </g>
  <g
     inkscape:groupmode="layer"
     id="layer9"
     inkscape:label="nose"
     style="display:inline"
     transform="translate(-97.116283,-80.042852)">
    <path
       style="fill:none;stroke:#000000;stroke-width:3;stroke-linecap:butt;stroke-linejoin:miter;stroke-miterlimit:4;stroke-dasharray:none;stroke-opacity:1"
       d="m 253.86935,263.86711 c -2.68374,2.56679 -5.37855,0.0627 -5.71009,-1.7796 0.78923,-4.95035 8.44955,-1.3241 5.71009,1.7796 z"
       id="path10313"
       sodipodi:nodetypes="ccc" />
  </g>
</svg>
