<?xml version="1.0" encoding="UTF-8" standalone="no"?>
<!-- Created with Inkscape (http://www.inkscape.org/) -->

<svg
   width="91.234238mm"
   height="100.37077mm"
   viewBox="0 0 91.234238 100.37077"
   version="1.1"
   id="svg37204"
   inkscape:version="1.1.2 (0a00cf5339, 2022-02-04)"
   sodipodi:docname="drawing.svg"
   xmlns:inkscape="http://www.inkscape.org/namespaces/inkscape"
   xmlns:sodipodi="http://sodipodi.sourceforge.net/DTD/sodipodi-0.dtd"
   xmlns="http://www.w3.org/2000/svg"
   xmlns:svg="http://www.w3.org/2000/svg">
  <sodipodi:namedview
     id="namedview37206"
     pagecolor="#ffffff"
     bordercolor="#666666"
     borderopacity="1.0"
     inkscape:pageshadow="2"
     inkscape:pageopacity="0.0"
     inkscape:pagecheckerboard="0"
     inkscape:document-units="mm"
     showgrid="false"
     fit-margin-top="0"
     fit-margin-left="0"
     fit-margin-right="0"
     fit-margin-bottom="0"
     inkscape:zoom="0.46947952"
     inkscape:cx="52.18545"
     inkscape:cy="271.57734"
     inkscape:window-width="1366"
     inkscape:window-height="699"
     inkscape:window-x="0"
     inkscape:window-y="0"
     inkscape:window-maximized="1"
     inkscape:current-layer="layer1" />
  <defs
     id="defs37201" />
  <g
     inkscape:label="Layer 1"
     inkscape:groupmode="layer"
     id="layer1"
     transform="translate(-79.291307,-76.925228)">
    <path
       style="display:inline;fill:#ff6600;stroke:#000000;stroke-width:0.79375;stroke-linecap:butt;stroke-linejoin:miter;stroke-miterlimit:4;stroke-dasharray:none;stroke-opacity:1"
       d="m 104.19653,166.38192 -5.386575,3.48792 c 3.637675,7.84367 10.983545,10.04188 17.665765,1.79164 -7.44557,-1.34027 -8.94516,-3.42471 -12.27919,-5.27956 z"
       id="path2108"
       sodipodi:nodetypes="cccc" />
    <path
       style="display:inline;fill:#ff6600;stroke:#000000;stroke-width:0.79375;stroke-linecap:butt;stroke-linejoin:miter;stroke-miterlimit:4;stroke-dasharray:none;stroke-opacity:1"
       d="m 145.15243,166.38905 5.38657,3.48791 c -3.63767,7.84368 -10.98354,10.04188 -17.66577,1.79164 7.44557,-1.34026 8.94517,-3.4247 12.2792,-5.27955 z"
       id="path2108-8"
       sodipodi:nodetypes="cccc" />
    <path
       style="display:inline;fill:#853708;fill-opacity:1;stroke:none;stroke-width:0.264583px;stroke-linecap:butt;stroke-linejoin:miter;stroke-opacity:1"
       d="m 103.2238,166.97041 c 0.57364,0.009 13.14014,4.78285 13.14014,4.78285 -2.94235,1.39473 -5.2245,0.0737 -7.52365,-0.66625 -5.79236,-2.52664 -4.10992,-2.22097 -5.61649,-4.1166 z"
       id="path28079"
       sodipodi:nodetypes="cccc" />
    <path
       style="display:inline;fill:#853708;fill-opacity:1;stroke:none;stroke-width:0.264583px;stroke-linecap:butt;stroke-linejoin:miter;stroke-opacity:1"
       d="m 146.11779,166.04854 c -0.57363,0.009 -12.89125,5.99234 -12.89125,5.99234 1.49896,0.41925 3.80296,-0.14238 6.49691,-0.61552 5.79236,-2.52663 4.88777,-3.48119 6.39434,-5.37682 z"
       id="path28079-1"
       sodipodi:nodetypes="cccc" />
    <path
       id="path860"
       style="display:inline;fill:#000000;stroke:#000000;stroke-width:0.264583px;stroke-linecap:butt;stroke-linejoin:miter;stroke-opacity:1"
       d="m 125.42813,77.058201 c -8.36004,0.860296 -12.72972,2.901741 -16.33338,7.036819 -8.44808,7.422062 -7.0846,19.38677 -13.664194,26.89158 -11.377551,12.97747 -19.01067,21.81054 -14.863769,19.61251 5.15281,0.63929 10.305676,-0.68308 15.458487,-2.94607 -9.436796,32.4519 5.997906,45.58469 29.402856,44.89028 20.08852,1.40713 33.16394,-11.79372 29.40286,-44.89028 5.15281,2.26299 10.30568,3.58536 15.45849,2.94607 -4.03606,-5.68612 -10.04719,-9.6329 -14.98478,-15.31498 -7.02554,-8.08484 -7.86686,-21.9529 -13.52214,-29.349849 -3.70852,-4.850648 -8.54745,-8.09265 -16.35443,-8.87608 z"
       sodipodi:nodetypes="ccscccccssc" />
    <path
       style="display:inline;fill:#ffffff;stroke:#000000;stroke-width:0.264583px;stroke-linecap:butt;stroke-linejoin:miter;stroke-opacity:1"
       d="m 112.57635,103.89149 c -1.96283,-0.52798 -5.74744,-16.297599 1.88041,-17.819588 5.35335,-1.795071 7.12959,9.524809 10.51792,14.934218 5.32516,-8.666459 5.11852,-15.890134 9.58922,-15.116082 6.06476,1.157094 7.7849,13.395669 2.41261,18.065762 15.06755,10.75689 32.79827,64.6704 -12.60032,66.88099 -35.249821,1.30483 -38.142931,-44.78262 -11.79984,-66.9453 z"
       id="path3272"
       sodipodi:nodetypes="ccccccc" />
    <path
       style="display:inline;fill:#eceded;fill-opacity:1;stroke:none;stroke-width:0.264583px;stroke-linecap:butt;stroke-linejoin:miter;stroke-opacity:1"
       d="m 95.648526,147.02932 c 5.511714,7.947 27.214924,26.82527 52.297184,5.50289 -3.32452,8.65012 -10.25063,15.07063 -29.12284,14.09576 -12.43568,-1.81852 -20.861738,-6.43099 -23.174344,-19.59865 z"
       id="path15009"
       sodipodi:nodetypes="cccc" />
    <path
       style="display:inline;fill:#cacacc;fill-opacity:1;stroke:none;stroke-width:0.264583px;stroke-linecap:butt;stroke-linejoin:miter;stroke-opacity:1"
       d="m 95.648526,147.02932 c 6.933164,27.58839 66.846024,30.89617 53.723924,-23.67957 7.47757,15.1594 8.2691,46.36914 -25.021,47.47886 -19.92849,-0.46601 -27.441142,-10.00803 -28.702924,-23.79929 z"
       id="path13972"
       sodipodi:nodetypes="cccc" />
    <path
       style="display:inline;fill:#ff6600;stroke:#000000;stroke-width:0.529167;stroke-linecap:butt;stroke-linejoin:miter;stroke-miterlimit:4;stroke-dasharray:none;stroke-opacity:1"
       d="m 117.19987,106.15118 c 1.67944,-3.15551 11.90067,-5.66478 16.33045,0.0751 -1.52327,3.1231 -4.75294,4.45225 -8.15736,5.59769 -3.99748,-1.22486 -6.62556,-3.16616 -8.17309,-5.67278 z"
       id="path2812"
       sodipodi:nodetypes="cccc" />
    <path
       style="color:#000000;display:inline;fill:#000000;stroke:#000000;stroke-width:0.264583;stroke-miterlimit:4;stroke-dasharray:none;stroke-opacity:1"
       d="m 120.99533,106.16805 -0.12713,0.23203 4.4912,2.47065 5.01313,-2.45101 -0.11627,-0.23771 -4.88962,2.39054 z"
       id="path8681" />
    <path
       style="display:inline;fill:#000000;stroke:#000000;stroke-width:0.264583px;stroke-linecap:butt;stroke-linejoin:miter;stroke-opacity:1"
       d="m 115.40252,91.472283 c 2.61302,0.756589 2.24907,2.42425 2.41588,3.929478 -0.0411,2.274218 -1.02285,3.092352 -2.41488,3.275282 -1.70809,-0.04359 -2.25687,-1.378413 -2.42519,-3.136979 -0.14367,-4.324742 2.41984,-4.068199 2.42419,-4.067781 z"
       id="path6115"
       sodipodi:nodetypes="ccccc"
       inkscape:label="black" />
    <path
       style="display:inline;fill:#000000;stroke:#000000;stroke-width:0.264583px;stroke-linecap:butt;stroke-linejoin:miter;stroke-opacity:1"
       d="m 134.91335,91.598971 c 2.61301,0.756589 2.24906,2.42425 2.41588,3.929478 -0.0411,2.274215 -1.02286,3.092349 -2.41489,3.275279 -1.70809,-0.04359 -2.25686,-1.378413 -2.42518,-3.136976 -0.14367,-4.324742 2.41983,-4.068199 2.42419,-4.067781 z"
       id="path6115-4"
       sodipodi:nodetypes="ccccc"
       inkscape:label="black" />
    <path
       style="display:inline;fill:#ffffff;stroke:#000000;stroke-width:0.264583px;stroke-linecap:butt;stroke-linejoin:miter;stroke-opacity:1"
       d="m 114.37504,94.162045 c -0.0292,-1.076457 0.42315,-1.31065 0.92484,-1.458481 0.45682,0.06238 1.07827,0.08082 0.90059,1.483434 -0.0134,0.67632 -0.18924,1.190429 -0.88411,1.186119 -0.606,0.04501 -0.95216,-0.308959 -0.94132,-1.211072 z"
       id="path7809"
       sodipodi:nodetypes="ccccc" />
    <path
       style="display:inline;fill:#ffffff;stroke:#000000;stroke-width:0.264583px;stroke-linecap:butt;stroke-linejoin:miter;stroke-opacity:1"
       d="m 134.03516,94.18686 c -0.0292,-1.076457 0.42315,-1.31065 0.92484,-1.458481 0.45682,0.06238 1.07826,0.08082 0.90059,1.483434 -0.0134,0.67632 -0.18924,1.190429 -0.88412,1.186119 -0.606,0.04501 -0.95215,-0.308959 -0.94131,-1.211072 z"
       id="path7809-8"
       sodipodi:nodetypes="ccccc" />
  </g>
</svg>
